<svg xmlns="http://www.w3.org/2000/svg" xmlns:xlink="http://www.w3.org/1999/xlink" width="500" zoomAndPan="magnify" viewBox="0 0 375 374.999991" height="500" preserveAspectRatio="xMidYMid meet" version="1.0"><defs><g/><clipPath id="ae2644590d"><rect x="0" width="271" y="0" height="54"/></clipPath><clipPath id="104ae4e340"><path d="M 265.117188 140.027344 L 370.867188 140.027344 L 370.867188 241.277344 L 265.117188 241.277344 Z M 265.117188 140.027344 " clip-rule="nonzero"/></clipPath><clipPath id="e9b9c89a27"><path d="M 293.066406 145.515625 C 295.421875 145.515625 297.332031 147.425781 297.332031 149.78125 C 297.332031 152.136719 295.421875 154.042969 293.066406 154.042969 C 290.714844 154.042969 288.804688 152.136719 288.804688 149.78125 C 288.804688 147.425781 290.714844 145.515625 293.066406 145.515625 Z M 296.289062 166.734375 C 298.351562 166.734375 300.023438 168.410156 300.023438 170.46875 C 300.023438 172.53125 298.351562 174.203125 296.289062 174.203125 C 294.230469 174.203125 292.558594 172.53125 292.558594 170.46875 C 292.558594 168.410156 294.230469 166.734375 296.289062 166.734375 Z M 270.710938 159.101562 C 273.800781 159.101562 276.304688 161.609375 276.304688 164.695312 C 276.304688 167.785156 273.800781 170.292969 270.710938 170.292969 C 267.621094 170.292969 265.117188 167.785156 265.117188 164.695312 C 265.117188 161.609375 267.621094 159.101562 270.710938 159.101562 Z M 311.160156 203.019531 C 309.078125 203.019531 307.390625 204.707031 307.390625 206.789062 C 307.390625 208.871094 309.078125 210.558594 311.160156 210.558594 C 313.242188 210.558594 314.929688 208.871094 314.929688 206.789062 C 314.929688 204.707031 313.242188 203.019531 311.160156 203.019531 Z M 288.722656 188.183594 C 291.667969 188.183594 294.050781 190.570312 294.050781 193.515625 C 294.050781 196.460938 291.667969 198.847656 288.722656 198.847656 C 285.777344 198.847656 283.390625 196.460938 283.390625 193.515625 C 283.390625 190.570312 285.777344 188.183594 288.722656 188.183594 Z M 341.738281 158.070312 C 340.128906 158.5 338.398438 159.101562 336.601562 159.863281 C 336.707031 160.28125 336.765625 160.71875 336.765625 161.171875 C 336.765625 161.339844 336.757812 161.503906 336.742188 161.667969 C 336.90625 161.730469 337.066406 161.789062 337.230469 161.851562 C 337.8125 162.070312 338.386719 162.300781 338.949219 162.542969 C 345.84375 165.453125 351.609375 169.730469 355.5 174.574219 C 354.90625 172.160156 353.992188 169.820312 352.796875 167.589844 C 351.183594 164.582031 349.050781 161.761719 346.472656 159.207031 C 345.949219 159.535156 345.332031 159.722656 344.667969 159.722656 C 343.425781 159.722656 342.339844 159.0625 341.738281 158.070312 Z M 322.757812 146.695312 C 325.59375 149.1875 328.113281 152.332031 330.222656 155.976562 C 330.613281 155.886719 331.015625 155.839844 331.433594 155.839844 C 333.140625 155.839844 334.660156 156.640625 335.636719 157.890625 C 337.601562 157.050781 339.503906 156.390625 341.269531 155.925781 C 341.304688 155.601562 341.386719 155.292969 341.507812 155.003906 C 340.925781 154.585938 340.332031 154.175781 339.726562 153.777344 C 334.9375 150.648438 329.3125 148.234375 323.101562 146.773438 Z M 326.957031 205.960938 C 327.832031 204.519531 328.65625 203.046875 329.414062 201.550781 C 329.757812 200.871094 330.089844 200.1875 330.410156 199.496094 C 332.050781 195.953125 333.324219 192.3125 334.101562 188.695312 C 332.292969 187.882812 331.03125 186.0625 331.03125 183.949219 C 331.03125 181.542969 332.664062 179.519531 334.886719 178.925781 C 334.859375 178.574219 334.828125 178.21875 334.792969 177.867188 C 334.488281 175.019531 333.996094 172.265625 333.332031 169.636719 C 333.269531 169.398438 333.207031 169.15625 333.144531 168.917969 C 332.917969 168.070312 332.671875 167.234375 332.410156 166.410156 C 332.09375 166.46875 331.765625 166.5 331.433594 166.5 C 329.910156 166.5 328.535156 165.863281 327.566406 164.839844 C 327.34375 164.992188 327.125 165.144531 326.902344 165.300781 C 326.621094 165.5 326.339844 165.703125 326.058594 165.90625 C 322.421875 168.578125 318.996094 171.796875 316.261719 175.46875 C 317.21875 176.417969 317.8125 177.730469 317.8125 179.183594 C 317.8125 181.234375 316.636719 183.003906 314.921875 183.867188 L 314.941406 183.921875 C 317.246094 191.015625 321.621094 198.929688 326.957031 205.960938 Z M 352.300781 195.847656 C 352.5625 195.425781 352.820312 195.003906 353.070312 194.574219 C 354.667969 191.332031 355.644531 188.09375 356.066406 184.914062 C 356.238281 183.640625 356.316406 182.375 356.3125 181.121094 C 356.308594 180.613281 356.292969 180.105469 356.261719 179.601562 C 356.050781 179.21875 355.824219 178.839844 355.585938 178.464844 C 352.0625 172.882812 345.839844 167.835938 338.097656 164.5625 C 337.441406 164.285156 336.769531 164.019531 336.089844 163.765625 C 335.6875 164.484375 335.121094 165.101562 334.445312 165.566406 C 334.910156 167.003906 335.324219 168.484375 335.679688 170 C 336.0625 171.609375 336.378906 173.261719 336.632812 174.953125 C 336.765625 175.835938 336.882812 176.730469 336.976562 177.636719 C 337.019531 178.03125 337.054688 178.425781 337.078125 178.820312 C 339.546875 179.226562 341.433594 181.367188 341.433594 183.953125 C 341.433594 184.71875 341.265625 185.449219 340.96875 186.105469 C 342.699219 187.589844 344.421875 189.316406 346.117188 191.226562 C 346.941406 192.15625 347.757812 193.132812 348.5625 194.144531 C 349.015625 194.714844 349.464844 195.296875 349.910156 195.886719 C 350.304688 195.753906 350.726562 195.675781 351.167969 195.675781 C 351.5625 195.675781 351.945312 195.738281 352.300781 195.847656 Z M 330.632812 213.765625 C 330.09375 213.183594 329.5625 212.59375 329.039062 211.992188 C 328.441406 211.3125 327.855469 210.617188 327.277344 209.910156 L 327.148438 209.75 C 326.949219 210.042969 326.75 210.339844 326.550781 210.628906 C 323.390625 215.222656 319.753906 219.398438 315.984375 222.851562 C 320.683594 221.628906 325.59375 219.589844 330.363281 216.820312 C 330.230469 216.4375 330.160156 216.023438 330.160156 215.59375 C 330.160156 214.929688 330.332031 214.308594 330.632812 213.765625 Z M 348.125 197.171875 C 346.957031 195.621094 345.765625 194.148438 344.554688 192.777344 C 342.9375 190.941406 341.292969 189.285156 339.652344 187.867188 C 338.742188 188.664062 337.550781 189.148438 336.25 189.152344 C 335.371094 193.238281 333.898438 197.335938 331.988281 201.296875 C 331.789062 201.710938 331.585938 202.125 331.375 202.539062 C 330.464844 204.332031 329.46875 206.09375 328.398438 207.808594 C 328.546875 207.992188 328.695312 208.171875 328.84375 208.355469 C 329.449219 209.097656 330.066406 209.832031 330.6875 210.546875 C 331.191406 211.121094 331.695312 211.683594 332.207031 212.238281 C 332.722656 211.972656 333.308594 211.824219 333.929688 211.824219 C 334.90625 211.824219 335.800781 212.195312 336.46875 212.808594 C 337.597656 211.976562 338.707031 211.097656 339.792969 210.179688 C 341.058594 209.113281 342.296875 207.988281 343.492188 206.808594 C 345.09375 205.226562 346.625 203.550781 348.0625 201.78125 C 347.597656 201.148438 347.324219 200.367188 347.324219 199.519531 C 347.324219 198.636719 347.625 197.820312 348.125 197.171875 Z M 344.824219 225.199219 C 341.824219 223.636719 338.785156 221.460938 335.820312 218.851562 C 335.265625 219.175781 334.617188 219.359375 333.929688 219.359375 C 333.078125 219.359375 332.292969 219.078125 331.660156 218.601562 C 326.59375 221.566406 321.363281 223.734375 316.363281 225.019531 C 316.351562 225.308594 316.3125 225.585938 316.246094 225.855469 L 331.191406 233.8125 C 331.234375 233.765625 331.277344 233.71875 331.320312 233.675781 L 331.324219 233.671875 C 332.121094 232.875 333.222656 232.382812 334.429688 232.382812 C 334.660156 232.382812 334.882812 232.402344 335.101562 232.433594 C 337.859375 227.675781 342.015625 225.875 344.824219 225.199219 Z M 360.382812 218.863281 C 359.757812 217.335938 359.082031 215.800781 358.359375 214.269531 C 356.867188 211.101562 355.179688 207.953125 353.359375 204.941406 C 353.003906 204.355469 352.644531 203.773438 352.28125 203.199219 C 351.929688 203.308594 351.554688 203.363281 351.167969 203.363281 C 350.691406 203.363281 350.230469 203.273438 349.808594 203.117188 C 348.308594 204.96875 346.707031 206.722656 345.03125 208.371094 C 343.808594 209.582031 342.542969 210.734375 341.242188 211.832031 C 340.050781 212.835938 338.832031 213.796875 337.59375 214.707031 C 337.660156 214.992188 337.699219 215.289062 337.699219 215.59375 C 337.699219 216.1875 337.558594 216.75 337.3125 217.25 C 340.949219 220.457031 344.675781 222.957031 348.238281 224.378906 C 349.996094 225.078125 351.71875 225.515625 353.367188 225.644531 C 353.59375 225.660156 353.816406 225.675781 354.039062 225.679688 C 355.046875 225.628906 356.191406 225.472656 357.511719 225.15625 C 360.542969 224.433594 360.589844 221.109375 360.382812 218.863281 Z M 359.726562 185.191406 C 358.859375 187.8125 357.800781 190.332031 356.574219 192.742188 C 356.082031 193.707031 355.566406 194.652344 355.027344 195.582031 C 354.765625 196.109375 354.492188 196.632812 354.203125 197.160156 C 354.710938 197.8125 355.011719 198.632812 355.011719 199.519531 C 355.011719 200.460938 354.675781 201.320312 354.117188 201.988281 L 354.128906 202.011719 C 356.632812 205.964844 358.921875 210.1875 360.859375 214.433594 C 361.195312 214.027344 361.535156 213.855469 361.597656 213.828125 C 361.976562 213.632812 362.25 213.398438 362.429688 213.136719 C 362.601562 212.890625 362.691406 212.621094 362.703125 212.351562 C 362.714844 212.0625 362.648438 211.765625 362.503906 211.480469 C 362.328125 211.128906 362.039062 210.796875 361.640625 210.519531 C 361.433594 210.375 361.269531 210.160156 361.203125 209.890625 C 361.050781 209.304688 361.402344 208.707031 361.988281 208.554688 C 363.75 208.097656 363.824219 206.9375 363.546875 205.878906 C 363.40625 205.34375 363.183594 204.785156 362.996094 204.316406 C 362.90625 204.09375 362.824219 203.890625 362.75 203.691406 C 361.917969 201.382812 364.007812 200.355469 366.617188 199.070312 C 366.992188 198.882812 367.382812 198.691406 367.78125 198.488281 C 368.464844 198.132812 368.597656 197.675781 368.421875 197.164062 C 368.117188 196.28125 367.242188 195.210938 366.261719 194.125 C 365.027344 192.757812 363.320312 190.679688 361.898438 188.679688 C 361.019531 187.445312 360.242188 186.222656 359.726562 185.191406 Z M 353.878906 157.140625 C 351.1875 153.644531 348.019531 151.089844 344.5625 149.269531 C 339.128906 146.410156 332.957031 145.34375 326.777344 145.285156 C 326.632812 145.28125 326.398438 145.28125 326.101562 145.28125 C 331.589844 146.824219 336.589844 149.097656 340.929688 151.9375 C 341.625 152.390625 342.300781 152.859375 342.960938 153.34375 C 343.464844 153.050781 344.046875 152.886719 344.667969 152.886719 C 346.238281 152.886719 347.5625 153.945312 347.960938 155.386719 C 348.664062 155.472656 349.332031 155.589844 349.96875 155.738281 C 351.429688 156.070312 352.726562 156.550781 353.878906 157.140625 Z M 358.230469 164.347656 C 358.105469 164.246094 358 164.113281 357.929688 163.957031 C 357.855469 163.792969 357.78125 163.632812 357.707031 163.476562 C 357.53125 163.199219 357.339844 162.929688 357.136719 162.667969 C 355.5 160.507812 353.050781 158.695312 349.476562 157.878906 L 349.285156 157.835938 C 348.863281 157.746094 348.425781 157.667969 347.972656 157.601562 C 348.445312 158.070312 348.902344 158.542969 349.347656 159.027344 C 351.488281 161.363281 353.300781 163.886719 354.734375 166.558594 C 356.820312 170.453125 358.101562 174.65625 358.425781 179.023438 C 358.488281 179.875 358.515625 180.734375 358.503906 181.597656 C 358.800781 180.472656 359.0625 179.332031 359.285156 178.171875 C 359.34375 177.855469 359.402344 177.535156 359.457031 177.214844 L 359.46875 177.136719 L 359.484375 177.058594 L 359.546875 176.664062 C 359.554688 176.621094 359.5625 176.582031 359.574219 176.542969 C 359.777344 175.421875 359.972656 174.578125 360.027344 174.335938 C 360.03125 174.316406 360.035156 174.292969 360.039062 174.273438 C 360.105469 173.984375 360.15625 173.628906 360.191406 173.21875 C 360.214844 172.921875 360.226562 172.59375 360.226562 172.242188 C 360.222656 170.074219 359.734375 167.085938 358.230469 164.351562 Z M 312.195312 156.644531 C 313.601562 156.644531 314.8125 157.476562 315.363281 158.675781 C 315.835938 158.640625 316.308594 158.609375 316.78125 158.589844 C 320.113281 158.433594 323.378906 158.609375 326.53125 159.074219 C 326.898438 158.210938 327.488281 157.46875 328.222656 156.914062 C 326.011719 153.128906 323.34375 149.941406 320.339844 147.53125 C 319.589844 148.175781 318.617188 148.570312 317.550781 148.570312 C 315.195312 148.570312 313.289062 146.660156 313.289062 144.308594 C 313.289062 141.953125 315.195312 140.046875 317.550781 140.046875 C 319.492188 140.046875 321.128906 141.34375 321.644531 143.117188 C 323.820312 143.09375 326.144531 143.085938 326.796875 143.089844 C 333.292969 143.152344 339.808594 144.285156 345.585938 147.324219 C 351.242188 150.304688 356.171875 155.089844 359.65625 162.449219 C 359.769531 162.628906 359.878906 162.8125 359.984375 162.996094 C 361.820312 166.179688 362.417969 169.710938 362.417969 172.242188 C 362.421875 173.257812 362.328125 174.125 362.179688 174.761719 C 362.175781 174.785156 362.171875 174.808594 362.164062 174.832031 C 362.113281 175.050781 361.925781 175.863281 361.726562 176.921875 C 361.722656 176.953125 361.71875 176.980469 361.714844 177.007812 C 361.636719 177.496094 361.554688 177.976562 361.464844 178.457031 C 361.175781 180.363281 360.996094 182.511719 361.40625 183.570312 C 361.785156 184.554688 362.65625 185.953125 363.6875 187.40625 C 365.070312 189.351562 366.710938 191.351562 367.886719 192.652344 C 369.042969 193.929688 370.082031 195.222656 370.503906 196.449219 C 371.050781 198.046875 370.71875 199.445312 368.789062 200.441406 C 368.386719 200.648438 367.980469 200.847656 367.589844 201.039062 C 365.960938 201.84375 364.652344 202.488281 364.816406 202.945312 C 364.871094 203.09375 364.949219 203.289062 365.035156 203.5 C 365.246094 204.023438 365.496094 204.644531 365.671875 205.328125 C 366.121094 207.042969 366.105469 208.894531 364.191406 210.023438 C 364.296875 210.175781 364.386719 210.332031 364.46875 210.488281 C 364.78125 211.117188 364.929688 211.789062 364.898438 212.453125 C 364.863281 213.128906 364.648438 213.792969 364.238281 214.382812 C 363.847656 214.945312 363.292969 215.433594 362.5625 215.800781 L 362.53125 215.816406 C 362.53125 215.820312 362.320312 215.894531 362.367188 216.773438 C 362.375 216.917969 362.410156 217.207031 362.449219 217.554688 C 362.78125 220.238281 363.484375 225.984375 358.019531 227.292969 C 354.941406 228.027344 352.722656 227.992188 350.964844 227.730469 C 349.992188 227.582031 349.160156 227.363281 348.40625 227.164062 C 348.179688 227.105469 347.960938 227.046875 347.71875 226.988281 C 347.535156 226.992188 347.140625 227.011719 346.597656 227.089844 C 346.007812 227.171875 345.238281 227.320312 344.382812 227.59375 C 342.121094 228.3125 339.21875 229.886719 337.140625 233.320312 C 337.28125 233.429688 337.414062 233.546875 337.539062 233.671875 L 337.542969 233.675781 C 338.335938 234.472656 338.828125 235.570312 338.828125 236.78125 C 338.828125 237.992188 338.335938 239.089844 337.542969 239.886719 L 337.539062 239.886719 L 337.539062 239.890625 C 336.738281 240.6875 335.640625 241.179688 334.429688 241.179688 C 333.222656 241.179688 332.121094 240.6875 331.324219 239.890625 L 331.320312 239.886719 C 330.527344 239.089844 330.035156 237.992188 330.035156 236.78125 C 330.035156 236.425781 330.074219 236.078125 330.15625 235.746094 L 315.210938 227.792969 C 315.167969 227.835938 315.125 227.882812 315.078125 227.929688 L 315.074219 227.933594 C 314.277344 228.726562 313.179688 229.222656 311.972656 229.222656 C 310.757812 229.222656 309.660156 228.726562 308.863281 227.933594 L 308.859375 227.929688 C 308.066406 227.132812 307.570312 226.035156 307.570312 224.824219 C 307.570312 223.613281 308.066406 222.511719 308.859375 221.71875 L 308.863281 221.710938 C 309.660156 220.917969 310.757812 220.425781 311.972656 220.425781 C 312.910156 220.425781 313.785156 220.722656 314.5 221.230469 C 318.546875 217.527344 322.433594 212.960938 325.710938 207.9375 C 321.140625 202.019531 317.207031 195.429688 314.558594 189.148438 C 313.886719 187.546875 313.292969 185.960938 312.796875 184.414062 C 312.722656 184.417969 312.652344 184.421875 312.578125 184.421875 C 309.683594 184.421875 307.339844 182.078125 307.339844 179.183594 C 307.339844 176.292969 309.683594 173.949219 312.578125 173.949219 C 313.222656 173.949219 313.839844 174.066406 314.410156 174.28125 C 314.84375 173.691406 315.300781 173.109375 315.765625 172.542969 C 318.117188 169.691406 320.84375 167.132812 323.722656 164.914062 C 324.355469 164.429688 324.992188 163.957031 325.636719 163.503906 C 325.894531 163.320312 326.152344 163.140625 326.414062 162.964844 C 326.21875 162.421875 326.109375 161.839844 326.101562 161.230469 C 323.039062 160.789062 319.859375 160.628906 316.621094 160.796875 C 316.28125 160.816406 315.941406 160.835938 315.597656 160.863281 C 315.261719 162.429688 313.867188 163.605469 312.195312 163.605469 C 310.273438 163.605469 308.714844 162.046875 308.714844 160.125 C 308.714844 158.203125 310.273438 156.644531 312.195312 156.644531 Z M 312.195312 156.644531 " clip-rule="evenodd"/></clipPath><linearGradient x1="-587.405114" gradientTransform="matrix(0.0157469, 0, 0, 0.0157469, 265.118648, 140.045927)" y1="5293.805062" x2="7326.931393" gradientUnits="userSpaceOnUse" y2="1174.548628" id="11050fca7c"><stop stop-opacity="1" stop-color="rgb(18.429565%, 50.19989%, 92.939758%)" offset="0"/><stop stop-opacity="1" stop-color="rgb(18.429565%, 50.19989%, 92.939758%)" offset="0.25"/><stop stop-opacity="1" stop-color="rgb(18.429565%, 50.19989%, 92.939758%)" offset="0.332336"/><stop stop-opacity="1" stop-color="rgb(18.429565%, 50.19989%, 92.939758%)" offset="0.375"/><stop stop-opacity="1" stop-color="rgb(18.429565%, 50.19989%, 92.939758%)" offset="0.4375"/><stop stop-opacity="1" stop-color="rgb(18.424988%, 50.233459%, 92.930603%)" offset="0.453125"/><stop stop-opacity="1" stop-color="rgb(18.367004%, 50.683594%, 92.807007%)" offset="0.457031"/><stop stop-opacity="1" stop-color="rgb(18.313599%, 51.101685%, 92.694092%)" offset="0.460937"/><stop stop-opacity="1" stop-color="rgb(18.260193%, 51.51825%, 92.581177%)" offset="0.464844"/><stop stop-opacity="1" stop-color="rgb(18.206787%, 51.934814%, 92.468262%)" offset="0.46875"/><stop stop-opacity="1" stop-color="rgb(18.151855%, 52.351379%, 92.355347%)" offset="0.472656"/><stop stop-opacity="1" stop-color="rgb(18.09845%, 52.767944%, 92.242432%)" offset="0.476562"/><stop stop-opacity="1" stop-color="rgb(18.045044%, 53.184509%, 92.127991%)" offset="0.480469"/><stop stop-opacity="1" stop-color="rgb(17.991638%, 53.6026%, 92.015076%)" offset="0.484375"/><stop stop-opacity="1" stop-color="rgb(17.938232%, 54.019165%, 91.902161%)" offset="0.488281"/><stop stop-opacity="1" stop-color="rgb(17.884827%, 54.43573%, 91.789246%)" offset="0.492188"/><stop stop-opacity="1" stop-color="rgb(17.829895%, 54.852295%, 91.676331%)" offset="0.496094"/><stop stop-opacity="1" stop-color="rgb(17.776489%, 55.270386%, 91.563416%)" offset="0.5"/><stop stop-opacity="1" stop-color="rgb(17.723083%, 55.686951%, 91.448975%)" offset="0.503906"/><stop stop-opacity="1" stop-color="rgb(17.669678%, 56.103516%, 91.33606%)" offset="0.507812"/><stop stop-opacity="1" stop-color="rgb(17.616272%, 56.520081%, 91.223145%)" offset="0.511719"/><stop stop-opacity="1" stop-color="rgb(17.562866%, 56.936646%, 91.110229%)" offset="0.515625"/><stop stop-opacity="1" stop-color="rgb(17.50946%, 57.35321%, 90.997314%)" offset="0.519531"/><stop stop-opacity="1" stop-color="rgb(17.456055%, 57.771301%, 90.884399%)" offset="0.523438"/><stop stop-opacity="1" stop-color="rgb(17.401123%, 58.187866%, 90.771484%)" offset="0.527344"/><stop stop-opacity="1" stop-color="rgb(17.347717%, 58.604431%, 90.658569%)" offset="0.53125"/><stop stop-opacity="1" stop-color="rgb(17.294312%, 59.020996%, 90.544128%)" offset="0.535156"/><stop stop-opacity="1" stop-color="rgb(17.240906%, 59.439087%, 90.431213%)" offset="0.539062"/><stop stop-opacity="1" stop-color="rgb(17.1875%, 59.855652%, 90.318298%)" offset="0.542969"/><stop stop-opacity="1" stop-color="rgb(17.134094%, 60.272217%, 90.205383%)" offset="0.546875"/><stop stop-opacity="1" stop-color="rgb(17.080688%, 60.688782%, 90.092468%)" offset="0.550781"/><stop stop-opacity="1" stop-color="rgb(17.027283%, 61.105347%, 89.979553%)" offset="0.554688"/><stop stop-opacity="1" stop-color="rgb(16.972351%, 61.521912%, 89.865112%)" offset="0.558594"/><stop stop-opacity="1" stop-color="rgb(16.918945%, 61.940002%, 89.752197%)" offset="0.5625"/><stop stop-opacity="1" stop-color="rgb(16.86554%, 62.356567%, 89.639282%)" offset="0.566406"/><stop stop-opacity="1" stop-color="rgb(16.812134%, 62.773132%, 89.526367%)" offset="0.570312"/><stop stop-opacity="1" stop-color="rgb(16.758728%, 63.189697%, 89.413452%)" offset="0.574219"/><stop stop-opacity="1" stop-color="rgb(16.705322%, 63.607788%, 89.300537%)" offset="0.578125"/><stop stop-opacity="1" stop-color="rgb(16.651917%, 64.024353%, 89.187622%)" offset="0.582031"/><stop stop-opacity="1" stop-color="rgb(16.598511%, 64.440918%, 89.074707%)" offset="0.585938"/><stop stop-opacity="1" stop-color="rgb(16.543579%, 64.857483%, 88.960266%)" offset="0.589844"/><stop stop-opacity="1" stop-color="rgb(16.490173%, 65.274048%, 88.847351%)" offset="0.59375"/><stop stop-opacity="1" stop-color="rgb(16.436768%, 65.690613%, 88.734436%)" offset="0.597656"/><stop stop-opacity="1" stop-color="rgb(16.383362%, 66.108704%, 88.621521%)" offset="0.601562"/><stop stop-opacity="1" stop-color="rgb(16.329956%, 66.525269%, 88.508606%)" offset="0.605469"/><stop stop-opacity="1" stop-color="rgb(16.27655%, 66.941833%, 88.395691%)" offset="0.609375"/><stop stop-opacity="1" stop-color="rgb(16.221619%, 67.358398%, 88.28125%)" offset="0.613281"/><stop stop-opacity="1" stop-color="rgb(16.168213%, 67.776489%, 88.168335%)" offset="0.617188"/><stop stop-opacity="1" stop-color="rgb(16.114807%, 68.193054%, 88.05542%)" offset="0.621094"/><stop stop-opacity="1" stop-color="rgb(16.061401%, 68.609619%, 87.942505%)" offset="0.625"/><stop stop-opacity="1" stop-color="rgb(16.007996%, 69.026184%, 87.82959%)" offset="0.628906"/><stop stop-opacity="1" stop-color="rgb(15.95459%, 69.442749%, 87.716675%)" offset="0.632812"/><stop stop-opacity="1" stop-color="rgb(15.901184%, 69.859314%, 87.60376%)" offset="0.636719"/><stop stop-opacity="1" stop-color="rgb(15.847778%, 70.277405%, 87.490845%)" offset="0.640625"/><stop stop-opacity="1" stop-color="rgb(15.792847%, 70.69397%, 87.376404%)" offset="0.644531"/><stop stop-opacity="1" stop-color="rgb(15.739441%, 71.110535%, 87.263489%)" offset="0.648438"/><stop stop-opacity="1" stop-color="rgb(15.686035%, 71.5271%, 87.150574%)" offset="0.652344"/><stop stop-opacity="1" stop-color="rgb(15.632629%, 71.943665%, 87.037659%)" offset="0.65625"/><stop stop-opacity="1" stop-color="rgb(15.579224%, 72.360229%, 86.924744%)" offset="0.660156"/><stop stop-opacity="1" stop-color="rgb(15.525818%, 72.77832%, 86.811829%)" offset="0.664062"/><stop stop-opacity="1" stop-color="rgb(15.472412%, 73.194885%, 86.697388%)" offset="0.667969"/><stop stop-opacity="1" stop-color="rgb(15.419006%, 73.61145%, 86.584473%)" offset="0.671875"/><stop stop-opacity="1" stop-color="rgb(15.364075%, 74.028015%, 86.471558%)" offset="0.675781"/><stop stop-opacity="1" stop-color="rgb(15.310669%, 74.446106%, 86.358643%)" offset="0.679688"/><stop stop-opacity="1" stop-color="rgb(15.257263%, 74.862671%, 86.245728%)" offset="0.683594"/><stop stop-opacity="1" stop-color="rgb(15.203857%, 75.279236%, 86.132812%)" offset="0.6875"/><stop stop-opacity="1" stop-color="rgb(15.150452%, 75.695801%, 86.018372%)" offset="0.691406"/><stop stop-opacity="1" stop-color="rgb(15.097046%, 76.112366%, 85.905457%)" offset="0.695312"/><stop stop-opacity="1" stop-color="rgb(15.04364%, 76.528931%, 85.792542%)" offset="0.699219"/><stop stop-opacity="1" stop-color="rgb(14.990234%, 76.947021%, 85.679626%)" offset="0.703125"/><stop stop-opacity="1" stop-color="rgb(15.263367%, 77.339172%, 85.276794%)" offset="0.707031"/><stop stop-opacity="1" stop-color="rgb(15.538025%, 77.732849%, 84.873962%)" offset="0.710938"/><stop stop-opacity="1" stop-color="rgb(17.565918%, 77.999878%, 82.917786%)" offset="0.714844"/><stop stop-opacity="1" stop-color="rgb(19.595337%, 78.266907%, 80.961609%)" offset="0.71875"/><stop stop-opacity="1" stop-color="rgb(21.62323%, 78.533936%, 79.005432%)" offset="0.722656"/><stop stop-opacity="1" stop-color="rgb(23.651123%, 78.800964%, 77.050781%)" offset="0.726562"/><stop stop-opacity="1" stop-color="rgb(25.679016%, 79.067993%, 75.094604%)" offset="0.730469"/><stop stop-opacity="1" stop-color="rgb(27.708435%, 79.335022%, 73.139954%)" offset="0.734375"/><stop stop-opacity="1" stop-color="rgb(29.736328%, 79.602051%, 71.183777%)" offset="0.738281"/><stop stop-opacity="1" stop-color="rgb(31.765747%, 79.86908%, 69.229126%)" offset="0.742188"/><stop stop-opacity="1" stop-color="rgb(33.79364%, 80.136108%, 67.272949%)" offset="0.746094"/><stop stop-opacity="1" stop-color="rgb(35.821533%, 80.403137%, 65.316772%)" offset="0.75"/><stop stop-opacity="1" stop-color="rgb(37.849426%, 80.670166%, 63.360596%)" offset="0.753906"/><stop stop-opacity="1" stop-color="rgb(39.878845%, 80.937195%, 61.405945%)" offset="0.757812"/><stop stop-opacity="1" stop-color="rgb(41.906738%, 81.204224%, 59.449768%)" offset="0.761719"/><stop stop-opacity="1" stop-color="rgb(43.936157%, 81.471252%, 57.495117%)" offset="0.765625"/><stop stop-opacity="1" stop-color="rgb(45.96405%, 81.738281%, 55.53894%)" offset="0.769531"/><stop stop-opacity="1" stop-color="rgb(47.991943%, 82.00531%, 53.58429%)" offset="0.773438"/><stop stop-opacity="1" stop-color="rgb(50.019836%, 82.272339%, 51.628113%)" offset="0.777344"/><stop stop-opacity="1" stop-color="rgb(52.049255%, 82.539368%, 49.671936%)" offset="0.78125"/><stop stop-opacity="1" stop-color="rgb(54.077148%, 82.806396%, 47.715759%)" offset="0.785156"/><stop stop-opacity="1" stop-color="rgb(56.106567%, 83.073425%, 45.761108%)" offset="0.789063"/><stop stop-opacity="1" stop-color="rgb(58.13446%, 83.340454%, 43.804932%)" offset="0.792969"/><stop stop-opacity="1" stop-color="rgb(60.162354%, 83.607483%, 41.850281%)" offset="0.796875"/><stop stop-opacity="1" stop-color="rgb(62.190247%, 83.874512%, 39.894104%)" offset="0.800781"/><stop stop-opacity="1" stop-color="rgb(64.219666%, 84.141541%, 37.939453%)" offset="0.804688"/><stop stop-opacity="1" stop-color="rgb(66.247559%, 84.408569%, 35.983276%)" offset="0.808594"/><stop stop-opacity="1" stop-color="rgb(68.276978%, 84.675598%, 34.0271%)" offset="0.8125"/><stop stop-opacity="1" stop-color="rgb(70.304871%, 84.941101%, 32.070923%)" offset="0.816406"/><stop stop-opacity="1" stop-color="rgb(72.332764%, 85.20813%, 30.116272%)" offset="0.820313"/><stop stop-opacity="1" stop-color="rgb(74.360657%, 85.475159%, 28.160095%)" offset="0.824219"/><stop stop-opacity="1" stop-color="rgb(76.390076%, 85.742188%, 26.205444%)" offset="0.828125"/><stop stop-opacity="1" stop-color="rgb(78.388977%, 86.004639%, 24.276733%)" offset="0.832031"/><stop stop-opacity="1" stop-color="rgb(80.389404%, 86.268616%, 22.349548%)" offset="0.835938"/><stop stop-opacity="1" stop-color="rgb(80.389404%, 86.268616%, 22.349548%)" offset="0.84375"/><stop stop-opacity="1" stop-color="rgb(80.389404%, 86.268616%, 22.349548%)" offset="0.875"/><stop stop-opacity="1" stop-color="rgb(80.389404%, 86.268616%, 22.349548%)" offset="1"/></linearGradient><clipPath id="fc80df4cd1"><path d="M 20 16 L 41 16 L 41 40 L 20 40 Z M 20 16 " clip-rule="nonzero"/></clipPath><clipPath id="5ca135e4fb"><path d="M 28.488281 43.140625 L 12.089844 32.226562 L 28.460938 7.628906 L 44.859375 18.542969 Z M 28.488281 43.140625 " clip-rule="nonzero"/></clipPath><clipPath id="8186f31b9c"><path d="M 28.488281 43.140625 L 12.089844 32.226562 L 28.460938 7.628906 L 44.859375 18.542969 Z M 28.488281 43.140625 " clip-rule="nonzero"/></clipPath><clipPath id="7f1a1786d4"><path d="M 8 8 L 29 8 L 29 32 L 8 32 Z M 8 8 " clip-rule="nonzero"/></clipPath><clipPath id="5c29a3fa68"><path d="M 16.5625 35.203125 L 0.164062 24.289062 L 16.535156 -0.308594 L 32.933594 10.605469 Z M 16.5625 35.203125 " clip-rule="nonzero"/></clipPath><clipPath id="ec0fba9f51"><path d="M 16.5625 35.203125 L 0.164062 24.289062 L 16.535156 -0.308594 L 32.933594 10.605469 Z M 16.5625 35.203125 " clip-rule="nonzero"/></clipPath><clipPath id="83bef315c3"><rect x="0" width="43" y="0" height="41"/></clipPath></defs><g transform="matrix(1, 0, 0, 1, 33, 162)"><g clip-path="url(#ae2644590d)"><g fill="#3f51b5" fill-opacity="1"><g transform="translate(0.556709, 43.83814)"><g><path d="M 31.890625 -33.984375 L 43.703125 -33.984375 L 43.703125 0 L 36.25 0 L 36.25 -26.53125 L 36.03125 -26.53125 L 27.25 0 L 20.484375 0 L 11.703125 -26.53125 L 11.46875 -26.53125 L 11.46875 0 L 4.015625 0 L 4.015625 -33.984375 L 15.84375 -33.984375 L 23.859375 -9.625 Z M 31.890625 -33.984375 "/></g></g></g><g fill="#3f51b5" fill-opacity="1"><g transform="translate(46.686679, 43.83814)"><g><path d="M 14.703125 -5.109375 C 15.441406 -5.109375 16.175781 -5.226562 16.90625 -5.46875 C 17.644531 -5.71875 18.320312 -6.078125 18.9375 -6.546875 C 19.5625 -7.015625 20.078125 -7.59375 20.484375 -8.28125 L 25.25 -4.671875 C 24.207031 -3.285156 23.101562 -2.21875 21.9375 -1.46875 C 20.769531 -0.71875 19.566406 -0.203125 18.328125 0.078125 C 17.097656 0.359375 15.851562 0.5 14.59375 0.5 C 12.695312 0.5 10.941406 0.234375 9.328125 -0.296875 C 7.710938 -0.828125 6.3125 -1.625 5.125 -2.6875 C 3.9375 -3.757812 3.015625 -5.101562 2.359375 -6.71875 C 1.703125 -8.34375 1.375 -10.25 1.375 -12.4375 C 1.375 -14.476562 1.664062 -16.3125 2.25 -17.9375 C 2.832031 -19.570312 3.664062 -20.96875 4.75 -22.125 C 5.832031 -23.28125 7.125 -24.164062 8.625 -24.78125 C 10.132812 -25.394531 11.8125 -25.703125 13.65625 -25.703125 C 15.363281 -25.703125 16.929688 -25.421875 18.359375 -24.859375 C 19.785156 -24.304688 21.019531 -23.5 22.0625 -22.4375 C 23.113281 -21.382812 23.925781 -20.101562 24.5 -18.59375 C 25.070312 -17.09375 25.359375 -15.390625 25.359375 -13.484375 C 25.359375 -13.222656 25.351562 -12.984375 25.34375 -12.765625 C 25.34375 -12.546875 25.320312 -12.289062 25.28125 -12 C 25.25 -11.71875 25.195312 -11.347656 25.125 -10.890625 L 8.640625 -10.890625 C 8.671875 -9.734375 8.945312 -8.722656 9.46875 -7.859375 C 10 -6.992188 10.71875 -6.316406 11.625 -5.828125 C 12.53125 -5.347656 13.554688 -5.109375 14.703125 -5.109375 Z M 13.546875 -20.359375 C 12.503906 -20.359375 11.648438 -20.164062 10.984375 -19.78125 C 10.328125 -19.394531 9.820312 -18.882812 9.46875 -18.25 C 9.125 -17.625 8.894531 -16.929688 8.78125 -16.171875 L 18.28125 -16.171875 C 18.125 -17.441406 17.65625 -18.457031 16.875 -19.21875 C 16.09375 -19.976562 14.984375 -20.359375 13.546875 -20.359375 Z M 13.546875 -20.359375 "/></g></g></g><g fill="#3f51b5" fill-opacity="1"><g transform="translate(72.000627, 43.83814)"><g><path d="M 3.203125 0 L 3.203125 -25.203125 L 10.1875 -25.203125 L 10.1875 -20.671875 L 10.3125 -20.671875 C 11 -22.484375 12.039062 -23.773438 13.4375 -24.546875 C 14.832031 -25.316406 16.582031 -25.703125 18.6875 -25.703125 L 18.6875 -19.453125 C 17.101562 -19.328125 15.78125 -19.035156 14.71875 -18.578125 C 13.65625 -18.128906 12.804688 -17.503906 12.171875 -16.703125 C 11.546875 -15.910156 11.097656 -14.910156 10.828125 -13.703125 C 10.554688 -12.503906 10.421875 -11.078125 10.421875 -9.421875 L 10.421875 0 Z M 3.203125 0 "/></g></g></g><g fill="#3f51b5" fill-opacity="1"><g transform="translate(89.484499, 43.83814)"><g><path d="M 20.71875 0 L 13.875 -10.84375 L 10.4375 -7.421875 L 10.4375 0 L 3.203125 0 L 3.203125 -33.984375 L 10.4375 -33.984375 L 10.4375 -15.75 L 19.609375 -25.203125 L 28.296875 -25.203125 L 18.515625 -15.453125 L 29.015625 0 Z M 20.71875 0 "/></g></g></g><g fill="#26c6da" fill-opacity="1"><g transform="translate(116.876964, 43.83814)"><g><path d="M 3.203125 0 L 3.203125 -25.203125 L 10.296875 -25.203125 L 10.296875 -21.953125 L 10.4375 -21.953125 C 10.882812 -22.648438 11.4375 -23.28125 12.09375 -23.84375 C 12.757812 -24.414062 13.546875 -24.867188 14.453125 -25.203125 C 15.359375 -25.535156 16.375 -25.703125 17.5 -25.703125 C 19.15625 -25.703125 20.53125 -25.332031 21.625 -24.59375 C 22.71875 -23.863281 23.578125 -22.859375 24.203125 -21.578125 L 24.421875 -21.578125 C 25.035156 -22.460938 25.695312 -23.207031 26.40625 -23.8125 C 27.125 -24.425781 27.941406 -24.894531 28.859375 -25.21875 C 29.773438 -25.539062 30.832031 -25.703125 32.03125 -25.703125 C 33.863281 -25.703125 35.40625 -25.335938 36.65625 -24.609375 C 37.914062 -23.878906 38.867188 -22.835938 39.515625 -21.484375 C 40.160156 -20.128906 40.484375 -18.507812 40.484375 -16.625 L 40.484375 0 L 33.25 0 L 33.25 -14.8125 C 33.25 -16.476562 32.945312 -17.675781 32.34375 -18.40625 C 31.75 -19.144531 30.816406 -19.515625 29.546875 -19.515625 C 28.097656 -19.515625 27.046875 -19.050781 26.390625 -18.125 C 25.734375 -17.207031 25.40625 -15.859375 25.40625 -14.078125 L 25.40625 0 L 18.171875 0 L 18.171875 -14.8125 C 18.171875 -16.46875 17.878906 -17.664062 17.296875 -18.40625 C 16.722656 -19.144531 15.804688 -19.515625 14.546875 -19.515625 C 13.078125 -19.515625 12.019531 -19.050781 11.375 -18.125 C 10.738281 -17.207031 10.421875 -15.859375 10.421875 -14.078125 L 10.421875 0 Z M 3.203125 0 "/></g></g></g><g fill="#26c6da" fill-opacity="1"><g transform="translate(158.450086, 43.83814)"><g><path d="M 14.703125 -5.109375 C 15.441406 -5.109375 16.175781 -5.226562 16.90625 -5.46875 C 17.644531 -5.71875 18.320312 -6.078125 18.9375 -6.546875 C 19.5625 -7.015625 20.078125 -7.59375 20.484375 -8.28125 L 25.25 -4.671875 C 24.207031 -3.285156 23.101562 -2.21875 21.9375 -1.46875 C 20.769531 -0.71875 19.566406 -0.203125 18.328125 0.078125 C 17.097656 0.359375 15.851562 0.5 14.59375 0.5 C 12.695312 0.5 10.941406 0.234375 9.328125 -0.296875 C 7.710938 -0.828125 6.3125 -1.625 5.125 -2.6875 C 3.9375 -3.757812 3.015625 -5.101562 2.359375 -6.71875 C 1.703125 -8.34375 1.375 -10.25 1.375 -12.4375 C 1.375 -14.476562 1.664062 -16.3125 2.25 -17.9375 C 2.832031 -19.570312 3.664062 -20.96875 4.75 -22.125 C 5.832031 -23.28125 7.125 -24.164062 8.625 -24.78125 C 10.132812 -25.394531 11.8125 -25.703125 13.65625 -25.703125 C 15.363281 -25.703125 16.929688 -25.421875 18.359375 -24.859375 C 19.785156 -24.304688 21.019531 -23.5 22.0625 -22.4375 C 23.113281 -21.382812 23.925781 -20.101562 24.5 -18.59375 C 25.070312 -17.09375 25.359375 -15.390625 25.359375 -13.484375 C 25.359375 -13.222656 25.351562 -12.984375 25.34375 -12.765625 C 25.34375 -12.546875 25.320312 -12.289062 25.28125 -12 C 25.25 -11.71875 25.195312 -11.347656 25.125 -10.890625 L 8.640625 -10.890625 C 8.671875 -9.734375 8.945312 -8.722656 9.46875 -7.859375 C 10 -6.992188 10.71875 -6.316406 11.625 -5.828125 C 12.53125 -5.347656 13.554688 -5.109375 14.703125 -5.109375 Z M 13.546875 -20.359375 C 12.503906 -20.359375 11.648438 -20.164062 10.984375 -19.78125 C 10.328125 -19.394531 9.820312 -18.882812 9.46875 -18.25 C 9.125 -17.625 8.894531 -16.929688 8.78125 -16.171875 L 18.28125 -16.171875 C 18.125 -17.441406 17.65625 -18.457031 16.875 -19.21875 C 16.09375 -19.976562 14.984375 -20.359375 13.546875 -20.359375 Z M 13.546875 -20.359375 "/></g></g></g><g fill="#26c6da" fill-opacity="1"><g transform="translate(183.764034, 43.83814)"><g><path d="M 10.75 0 C 8.40625 0 6.679688 -0.601562 5.578125 -1.8125 C 4.484375 -3.03125 3.9375 -4.890625 3.9375 -7.390625 L 3.9375 -20.90625 L 0.53125 -20.90625 L 0.53125 -25.203125 L 3.9375 -25.203125 L 3.9375 -33.984375 L 11.125 -33.984375 L 11.125 -25.203125 L 16.390625 -25.203125 L 16.390625 -20.90625 L 11.125 -20.90625 L 11.125 -8.84375 C 11.125 -8 11.203125 -7.335938 11.359375 -6.859375 C 11.515625 -6.390625 11.796875 -6.0625 12.203125 -5.875 C 12.609375 -5.695312 13.171875 -5.609375 13.890625 -5.609375 L 16.390625 -5.609375 L 16.390625 0 Z M 10.75 0 "/></g></g></g><g fill="#26c6da" fill-opacity="1"><g transform="translate(200.007075, 43.83814)"><g><path d="M 3.203125 0 L 3.203125 -25.203125 L 10.1875 -25.203125 L 10.1875 -20.671875 L 10.3125 -20.671875 C 11 -22.484375 12.039062 -23.773438 13.4375 -24.546875 C 14.832031 -25.316406 16.582031 -25.703125 18.6875 -25.703125 L 18.6875 -19.453125 C 17.101562 -19.328125 15.78125 -19.035156 14.71875 -18.578125 C 13.65625 -18.128906 12.804688 -17.503906 12.171875 -16.703125 C 11.546875 -15.910156 11.097656 -14.910156 10.828125 -13.703125 C 10.554688 -12.503906 10.421875 -11.078125 10.421875 -9.421875 L 10.421875 0 Z M 3.203125 0 "/></g></g></g><g fill="#26c6da" fill-opacity="1"><g transform="translate(217.490947, 43.83814)"><g><path d="M 1.84375 8.78125 L 1.84375 3.125 L 3.921875 3.125 C 5.097656 3.125 6.109375 2.910156 6.953125 2.484375 C 7.804688 2.054688 8.390625 1.441406 8.703125 0.640625 C 9.023438 -0.160156 8.96875 -1.125 8.53125 -2.25 L 0.0625 -25.203125 L 7.765625 -25.203125 L 12.640625 -8.40625 L 13.03125 -8.40625 L 17.96875 -25.203125 L 25.71875 -25.203125 L 16.15625 0.46875 C 15.582031 1.96875 14.988281 3.242188 14.375 4.296875 C 13.757812 5.359375 13.070312 6.21875 12.3125 6.875 C 11.550781 7.53125 10.675781 8.007812 9.6875 8.3125 C 8.707031 8.625 7.5625 8.78125 6.25 8.78125 Z M 1.84375 8.78125 "/></g></g></g><g fill="#26c6da" fill-opacity="1"><g transform="translate(241.692425, 43.83814)"><g><path d="M 0.25 0 L 8.78125 -12.71875 L 0.25 -25.203125 L 9.046875 -25.203125 L 13.9375 -17.296875 L 18.75 -25.203125 L 27.609375 -25.203125 L 18.9375 -12.71875 L 27.609375 0 L 18.75 0 L 13.9375 -8.125 L 9.046875 0 Z M 0.25 0 "/></g></g></g></g></g><g clip-path="url(#104ae4e340)"><g clip-path="url(#e9b9c89a27)"><path fill="url(#11050fca7c)" d="M 265.117188 140.046875 L 265.117188 241.179688 L 370.867188 241.179688 L 370.867188 140.046875 Z M 265.117188 140.046875 " fill-rule="nonzero"/></g></g><g transform="matrix(1, 0, 0, 1, 0, 142)"><g clip-path="url(#83bef315c3)"><g clip-path="url(#fc80df4cd1)"><g clip-path="url(#5ca135e4fb)"><g clip-path="url(#8186f31b9c)"><path fill="#cddc39" d="M 20.285156 19.5625 L 23.699219 37.015625 C 24.355469 40.386719 30.992188 39.378906 30.140625 35.398438 L 27.832031 24.582031 L 38.84375 22.785156 C 42.195312 22.238281 40.988281 15.734375 37.597656 16.359375 Z M 20.285156 19.5625 " fill-opacity="1" fill-rule="nonzero"/></g></g></g><g clip-path="url(#7f1a1786d4)"><g clip-path="url(#5c29a3fa68)"><g clip-path="url(#ec0fba9f51)"><path fill="#212121" d="M 8.359375 11.625 L 11.773438 29.078125 C 12.433594 32.449219 19.066406 31.441406 18.214844 27.460938 L 15.90625 16.648438 L 26.917969 14.851562 C 30.269531 14.304688 29.0625 7.796875 25.671875 8.425781 Z M 8.359375 11.625 " fill-opacity="1" fill-rule="nonzero"/></g></g></g></g></g></svg>